<svg width="30" height="30" viewBox="0 0 30 30" fill="none" xmlns="http://www.w3.org/2000/svg">
<path d="M15 12.2625C17.0711 12.2625 18.75 10.5835 18.75 8.51245C18.75 6.44138 17.0711 4.76245 15 4.76245C12.9289 4.76245 11.25 6.44138 11.25 8.51245C11.25 10.5835 12.9289 12.2625 15 12.2625Z" fill="white"/>
<path d="M6.01241 25.2375C5.96152 25.2359 5.91144 25.2243 5.86504 25.2033C5.81865 25.1823 5.77684 25.1524 5.74201 25.1152C5.70718 25.0781 5.68002 25.0344 5.66207 24.9868C5.64413 24.9391 5.63575 24.8884 5.63742 24.8375C5.63742 22.3511 6.62514 19.9666 8.38329 18.2084C10.1414 16.4502 12.526 15.4625 15.0124 15.4625C17.4988 15.4625 19.8834 16.4502 21.6415 18.2084C23.3997 19.9666 24.3874 22.3511 24.3874 24.8375C24.3891 24.8884 24.3807 24.9391 24.3628 24.9868C24.3448 25.0344 24.3176 25.0781 24.2828 25.1152C24.248 25.1524 24.2062 25.1823 24.1598 25.2033C24.1134 25.2243 24.0633 25.2359 24.0124 25.2375H6.01241Z" fill="white"/>
</svg>
