<svg width="27" height="27" viewBox="0 0 27 27" fill="none" xmlns="http://www.w3.org/2000/svg">
<g clip-path="url(#clip0_30001_283)">
<path d="M13.44 26.88C20.8627 26.88 26.88 20.8627 26.88 13.44C26.88 6.01729 20.8627 0 13.44 0C6.01729 0 0 6.01729 0 13.44C0 20.8627 6.01729 26.88 13.44 26.88Z" fill="#F0F0F0"/>
<path d="M3.07202 4.8866H23.8078C23.042 3.95919 22.1537 3.13678 21.1683 2.44299H5.71156C4.72619 3.13668 3.83794 3.95914 3.07202 4.8866Z" fill="#F0F0F0"/>
<path d="M0 13.4407C0 13.8526 0.0195825 14.2599 0.05586 14.6625H26.8241C26.8604 14.2599 26.88 13.8526 26.88 13.4407C26.88 13.0287 26.8604 12.6214 26.8241 12.2189H0.05586C0.0195825 12.6214 0 13.0287 0 13.4407Z" fill="#F0F0F0"/>
<path d="M1.46584 19.5491H25.4146C25.8104 18.775 26.1332 17.9575 26.3741 17.1056H0.506348C0.74727 17.9575 1.07014 18.775 1.46584 19.5491Z" fill="#F0F0F0"/>
<path d="M5.71156 24.4363H21.1682C22.1536 23.7425 23.0419 22.9201 23.8078 21.9927H3.07202C3.83794 22.92 4.72619 23.7425 5.71156 24.4363Z" fill="#F0F0F0"/>
<path d="M0.506348 9.77515H26.3742C26.1333 8.92318 25.8104 8.10565 25.4147 7.33154H1.46589C1.0702 8.10565 0.747323 8.92318 0.506348 9.77515Z" fill="#F0F0F0"/>
<path d="M6.42725 2.44373H21.1678C18.9817 0.904539 16.3162 0.00012207 13.4394 0.00012207C11.6864 0.00012207 8.61335 0.904539 6.42725 2.44373Z" fill="#D80027"/>
<path d="M12.8557 7.33069H25.4144C24.9675 6.45641 24.4277 5.63747 23.8079 4.88708H12.8557V7.33069Z" fill="#D80027"/>
<path d="M12.8557 12.2175H26.8242C26.7486 11.3785 26.5966 10.5614 26.374 9.77393H12.8557V12.2175Z" fill="#D80027"/>
<path d="M0.50566 17.1066H26.3734C26.5962 16.3192 26.7481 15.502 26.8237 14.663H0.0554199C0.13102 15.502 0.282955 16.3191 0.50566 17.1066Z" fill="#D80027"/>
<path d="M3.07183 21.9933H23.8076C24.4274 21.2428 24.9672 20.4239 25.4141 19.5497H1.46533C1.91226 20.424 2.45207 21.2429 3.07183 21.9933Z" fill="#D80027"/>
<path d="M13.4393 26.8805C16.3161 26.8805 18.9816 25.9761 21.1677 24.4369H5.71094C7.89704 25.9761 10.5625 26.8805 13.4393 26.8805Z" fill="#D80027"/>
<path d="M0.506095 9.77406C0.28339 10.5616 0.131508 11.3786 0.0559082 12.2177H13.44V-0.000488281C7.28809 -0.000488281 2.10167 4.13294 0.506095 9.77406Z" fill="#0052B4"/>
<path d="M8.00095 3.50623L8.87114 6.18451H11.6875L9.40915 7.83994L10.2793 10.5184L8.00095 8.86306L5.7225 10.5184L6.59285 7.83994L4.31445 6.18451H7.13071L8.00095 3.50623Z" fill="#F0F0F0"/>
</g>
<defs>
<clipPath id="clip0_30001_283">
<rect width="26.88" height="26.88" fill="white"/>
</clipPath>
</defs>
</svg>
