<svg width="27" height="27" viewBox="0 0 27 27" fill="none" xmlns="http://www.w3.org/2000/svg">
<path d="M26.3029 10.6796H25.2331V10.6245H13.2806V15.9367H20.7861C19.6911 19.0291 16.7488 21.2489 13.2806 21.2489C8.88007 21.2489 5.31224 17.6811 5.31224 13.2806C5.31224 8.88007 8.88007 5.31224 13.2806 5.31224C15.3119 5.31224 17.1598 6.07853 18.5669 7.33022L22.3233 3.57381C19.9514 1.36325 16.7787 0 13.2806 0C5.94638 0 0 5.94638 0 13.2806C0 20.6148 5.94638 26.5612 13.2806 26.5612C20.6148 26.5612 26.5612 20.6148 26.5612 13.2806C26.5612 12.3901 26.4695 11.5209 26.3029 10.6796Z" fill="#282A28"/>
</svg>
