<svg width="38" height="37" viewBox="0 0 38 37" fill="none" xmlns="http://www.w3.org/2000/svg">
<path d="M32.8349 6.89559V29.881H4.69057V6.89559H32.8349ZM32.8349 4.59705H4.69057C4.06854 4.59705 3.47199 4.83921 3.03215 5.27027C2.59231 5.70133 2.34521 6.28598 2.34521 6.89559V29.881C2.34521 30.4906 2.59231 31.0752 3.03215 31.5063C3.47199 31.9374 4.06854 32.1795 4.69057 32.1795H32.8349C33.4569 32.1795 34.0534 31.9374 34.4933 31.5063C34.9331 31.0752 35.1802 30.4906 35.1802 29.881V6.89559C35.1802 6.28598 34.9331 5.70133 34.4933 5.27027C34.0534 4.83921 33.4569 4.59705 32.8349 4.59705Z" fill="white"/>
<path d="M7.03613 11.4927H15.2449V13.7912H7.03613V11.4927Z" fill="white"/>
<path d="M7.03613 16.0897H11.7268V18.3883H7.03613V16.0897Z" fill="white"/>
<path d="M26.9716 20.6869H19.9355C19.0025 20.6869 18.1076 21.0501 17.4479 21.6967C16.7881 22.3433 16.4175 23.2203 16.4175 24.1347V26.4332H18.7628V24.1347C18.7628 23.8299 18.8864 23.5376 19.1063 23.322C19.3262 23.1065 19.6245 22.9854 19.9355 22.9854H26.9716C27.2826 22.9854 27.5809 23.1065 27.8008 23.322C28.0207 23.5376 28.1443 23.8299 28.1443 24.1347V26.4332H30.4896V24.1347C30.4896 23.2203 30.119 22.3433 29.4592 21.6967C28.7995 21.0501 27.9046 20.6869 26.9716 20.6869Z" fill="white"/>
<path d="M23.4534 19.5375C24.3811 19.5375 25.288 19.2679 26.0594 18.7628C26.8308 18.2577 27.432 17.5397 27.7871 16.6997C28.1421 15.8597 28.235 14.9354 28.054 14.0436C27.873 13.1519 27.4263 12.3328 26.7702 11.6898C26.1142 11.0469 25.2784 10.6091 24.3685 10.4317C23.4586 10.2543 22.5155 10.3454 21.6584 10.6933C20.8012 11.0413 20.0686 11.6305 19.5532 12.3865C19.0378 13.1425 18.7627 14.0313 18.7627 14.9405C18.7627 16.1597 19.2569 17.329 20.1366 18.1911C21.0163 19.0532 22.2094 19.5375 23.4534 19.5375ZM23.4534 12.6419C23.9173 12.6419 24.3707 12.7767 24.7564 13.0293C25.1421 13.2819 25.4427 13.6409 25.6202 14.0609C25.7978 14.4809 25.8442 14.943 25.7537 15.3889C25.6632 15.8348 25.4398 16.2443 25.1118 16.5658C24.7838 16.8872 24.3659 17.1062 23.911 17.1948C23.456 17.2835 22.9844 17.238 22.5559 17.064C22.1273 16.8901 21.761 16.5955 21.5033 16.2175C21.2456 15.8395 21.1081 15.3951 21.1081 14.9405C21.1081 14.3309 21.3552 13.7462 21.795 13.3152C22.2348 12.8841 22.8314 12.6419 23.4534 12.6419Z" fill="white"/>
</svg>
