<svg width="23" height="23" viewBox="0 0 23 23" fill="none" xmlns="http://www.w3.org/2000/svg">
<path d="M12.8263 9.62378C13.1414 9.93708 13.3563 10.3366 13.4436 10.7718C13.531 11.207 13.4869 11.6583 13.317 12.0685C13.1471 12.4787 12.859 12.8294 12.4892 13.0761C12.1194 13.3229 11.6845 13.4546 11.2396 13.4546C10.7946 13.4546 10.3597 13.3229 9.9899 13.0761C9.62008 12.8294 9.33197 12.4787 9.16206 12.0685C8.99216 11.6583 8.9481 11.207 9.03546 10.7718C9.12283 10.3366 9.33769 9.93708 9.65283 9.62378C10.0742 9.20492 10.6447 8.96973 11.2396 8.96973C11.8344 8.96973 12.4049 9.20492 12.8263 9.62378Z" fill="#F6BD00"/>
<path d="M17.4833 0H4.99523C3.67041 0 2.39986 0.52501 1.46307 1.45953C0.526282 2.39406 0 3.66155 0 4.98316V17.4411C0 18.7627 0.526282 20.0302 1.46307 20.9647C2.39986 21.8992 3.67041 22.4242 4.99523 22.4242H17.4833C18.8081 22.4242 20.0787 21.8992 21.0155 20.9647C21.9523 20.0302 22.4785 18.7627 22.4785 17.4411V4.98316C22.4785 3.66155 21.9523 2.39406 21.0155 1.45953C20.0787 0.52501 18.8081 0 17.4833 0ZM17.1461 7.47475L15.5726 14.0899C15.4932 14.4295 15.3201 14.7401 15.073 14.9867C14.8258 15.2333 14.5144 15.406 14.174 15.4852L7.49285 17.1047C7.19596 17.1672 6.88813 17.1548 6.59727 17.0686C6.3064 16.9824 6.04169 16.8252 5.82714 16.6112C5.61259 16.3971 5.45497 16.1331 5.36858 15.8429C5.28219 15.5527 5.26976 15.2457 5.33241 14.9495L6.90591 8.28451C6.98868 7.94783 7.16311 7.64052 7.40992 7.3965C7.65674 7.15248 7.96635 6.98124 8.30457 6.90168L14.9857 5.33199C15.2813 5.27021 15.5877 5.28269 15.8774 5.36828C16.167 5.45387 16.4307 5.60991 16.645 5.82237C16.8592 6.03482 17.0171 6.29704 17.1046 6.58546C17.1921 6.87388 17.2063 7.17946 17.1461 7.47475Z" fill="#F6BD00"/>
</svg>
