<svg width="27" height="23" viewBox="0 0 27 23" fill="none" xmlns="http://www.w3.org/2000/svg">
<path d="M25.6359 8.26819L14.3777 0.438021C13.9861 0.152957 13.5192 0 13.0406 0C12.562 0 12.0951 0.152957 11.7035 0.438021L0.445267 8.26819C0.223632 8.42256 0.0702398 8.66187 0.0188356 8.93347C-0.0325685 9.20507 0.0222261 9.4867 0.171165 9.71643C0.320104 9.94615 0.550987 10.1051 0.813023 10.1584C1.07506 10.2117 1.34678 10.1549 1.56842 10.0005L3.01247 9.0027V18.8424C3.01247 19.9451 3.43508 21.0026 4.18734 21.7823C4.93959 22.562 5.95987 23 7.02372 23H19.0575C20.1213 23 21.1416 22.562 21.8939 21.7823C22.6461 21.0026 23.0687 19.9451 23.0687 18.8424V9.0027L24.5128 10.0005C24.6844 10.0985 24.8785 10.1464 25.0744 10.1391C25.2385 10.1413 25.4005 10.1005 25.5454 10.0206C25.6903 9.94064 25.8134 9.82411 25.9034 9.68178C26.0436 9.45599 26.0941 9.1827 26.0442 8.91918C25.9944 8.65567 25.848 8.42238 25.6359 8.26819ZM15.7148 19.8402H10.3664C10.1005 19.8402 9.8454 19.7307 9.65734 19.5358C9.46927 19.3409 9.36362 19.0765 9.36362 18.8008C9.36362 18.5251 9.46927 18.2608 9.65734 18.0658C9.8454 17.8709 10.1005 17.7614 10.3664 17.7614H15.7148C15.9807 17.7614 16.2358 17.8709 16.4239 18.0658C16.6119 18.2608 16.7176 18.5251 16.7176 18.8008C16.7176 19.0765 16.6119 19.3409 16.4239 19.5358C16.2358 19.7307 15.9807 19.8402 15.7148 19.8402Z" fill="#F6BD00"/>
</svg>
