<svg width="23" height="23" viewBox="0 0 23 23" fill="none" xmlns="http://www.w3.org/2000/svg">
<path d="M11.2393 0C9.01636 0 6.84336 0.657579 4.99507 1.88958C3.14678 3.12159 1.70622 4.87268 0.855543 6.92143C0.00486975 8.97017 -0.217705 11.2246 0.215964 13.3995C0.649634 15.5744 1.72007 17.5722 3.29191 19.1403C4.86375 20.7083 6.86639 21.7762 9.0466 22.2088C11.2268 22.6414 13.4866 22.4194 15.5404 21.5708C17.5941 20.7221 19.3494 19.2851 20.5844 17.4412C21.8194 15.5974 22.4785 13.4297 22.4785 11.2121C22.4755 8.23941 21.2904 5.38934 19.1833 3.28732C17.0762 1.1853 14.2192 0.00304425 11.2393 0ZM18.1557 17.7324C17.3519 16.6592 16.3081 15.7878 15.1074 15.1876C13.9067 14.5874 12.5823 14.2748 11.2393 14.2748C9.89628 14.2748 8.5718 14.5874 7.37112 15.1876C6.17045 15.7878 5.12668 16.6592 4.3228 17.7324C3.04791 16.3848 2.19654 14.6942 1.87379 12.8693C1.55103 11.0445 1.77103 9.16536 2.50662 7.46385C3.24221 5.76233 4.46119 4.31296 6.01307 3.29466C7.56494 2.27636 9.38178 1.73371 11.2393 1.73371C13.0968 1.73371 14.9136 2.27636 16.4655 3.29466C18.0174 4.31296 19.2363 5.76233 19.9719 7.46385C20.7075 9.16536 20.9275 11.0445 20.6048 12.8693C20.282 14.6942 19.4306 16.3848 18.1557 17.7324Z" fill="#F6BD00"/>
<path d="M11.2393 4.48488C10.6169 4.48488 10.0084 4.669 9.4909 5.01396C8.97338 5.35892 8.57002 5.84923 8.33184 6.42288C8.09365 6.99652 8.03133 7.62775 8.15276 8.23673C8.27418 8.84571 8.5739 9.4051 9.01402 9.84415C9.45413 10.2832 10.0149 10.5822 10.6253 10.7033C11.2358 10.8245 11.8685 10.7623 12.4436 10.5247C13.0186 10.2871 13.5101 9.88468 13.8559 9.36841C14.2017 8.85215 14.3863 8.24518 14.3863 7.62427C14.3877 7.21158 14.3073 6.80269 14.1497 6.42113C13.9921 6.03958 13.7603 5.69291 13.4678 5.4011C13.1753 5.10928 12.8278 4.87809 12.4453 4.72085C12.0628 4.5636 11.653 4.48341 11.2393 4.48488Z" fill="#F6BD00"/>
</svg>
