<svg width="25" height="24" viewBox="0 0 25 24" fill="none" xmlns="http://www.w3.org/2000/svg">
<path d="M23.7172 21.971L19.6333 17.9138C21.4054 15.7197 22.2666 12.9316 22.0396 10.1233C21.8125 7.31508 20.5145 4.70055 18.4127 2.81806C16.311 0.935566 13.5655 -0.0715906 10.7416 0.00396307C7.91774 0.0795167 5.23037 1.23203 3.23285 3.2242C1.23533 5.21637 0.0797301 7.89655 0.0039737 10.7129C-0.0717827 13.5292 0.938076 16.2673 2.82562 18.3635C4.71317 20.4596 7.33472 21.7541 10.1505 21.9806C12.9663 22.207 15.7619 21.3481 17.9618 19.5807L22.03 23.6537C22.2544 23.8755 22.5576 24 22.8736 24C23.1896 24 23.4928 23.8755 23.7172 23.6537C23.9359 23.4279 24.0581 23.1263 24.0581 22.8124C24.0581 22.4985 23.9359 22.1968 23.7172 21.971ZM16.1801 10.9629C16.1759 9.60873 15.6346 8.31116 14.6745 7.35358C13.7143 6.396 12.4133 5.85619 11.0554 5.85205C10.7431 5.84797 10.4446 5.7224 10.2237 5.50209C10.0028 5.28178 9.87692 4.98415 9.87284 4.67261C9.87071 4.51714 9.89985 4.36282 9.95853 4.21877C10.0172 4.07471 10.1042 3.94385 10.2145 3.83391C10.3247 3.72396 10.4559 3.63716 10.6004 3.57864C10.7448 3.52012 10.8995 3.49106 11.0554 3.49317C13.0406 3.49733 14.9432 4.28565 16.3469 5.68561C17.7507 7.08556 18.5411 8.98312 18.5453 10.9629C18.5453 11.2758 18.4207 11.5757 18.1989 11.7969C17.9771 12.0181 17.6763 12.1424 17.3627 12.1424C17.049 12.1424 16.7482 12.0181 16.5264 11.7969C16.3046 11.5757 16.1801 11.2758 16.1801 10.9629Z" fill="#F6BD00"/>
</svg>
